<mxfile host="app.diagrams.net" agent="Mozilla/5.0 (Windows NT 10.0; Win64; x64) AppleWebKit/537.36 (KHTML, like Gecko) Chrome/129.0.0.0 Safari/537.36" version="24.7.17">
  <diagram name="PÃ¡gina-1" id="TPvvo_-l6tkurhbwpSG9">
    <mxGraphModel dx="3561" dy="1466" grid="1" gridSize="10" guides="1" tooltips="1" connect="1" arrows="1" fold="1" page="1" pageScale="1" pageWidth="827" pageHeight="1169" math="0" shadow="0">
      <root>
        <mxCell id="0" />
        <mxCell id="1" parent="0" />
        <mxCell id="-k7Hei3Dbmx0On5LG8Cz-501" value="" style="rounded=0;whiteSpace=wrap;html=1;" vertex="1" parent="1">
          <mxGeometry x="430.16" y="1179" width="165.55" height="110" as="geometry" />
        </mxCell>
        <mxCell id="-k7Hei3Dbmx0On5LG8Cz-504" style="edgeStyle=orthogonalEdgeStyle;rounded=0;orthogonalLoop=1;jettySize=auto;html=1;entryX=0;entryY=0.5;entryDx=0;entryDy=0;" edge="1" parent="1" source="-k7Hei3Dbmx0On5LG8Cz-497" target="-k7Hei3Dbmx0On5LG8Cz-491">
          <mxGeometry relative="1" as="geometry" />
        </mxCell>
        <mxCell id="-k7Hei3Dbmx0On5LG8Cz-505" style="edgeStyle=orthogonalEdgeStyle;rounded=0;orthogonalLoop=1;jettySize=auto;html=1;entryX=0;entryY=0.5;entryDx=0;entryDy=0;" edge="1" parent="1" source="-k7Hei3Dbmx0On5LG8Cz-497" target="-k7Hei3Dbmx0On5LG8Cz-501">
          <mxGeometry relative="1" as="geometry" />
        </mxCell>
        <mxCell id="-k7Hei3Dbmx0On5LG8Cz-497" value="" style="rounded=0;whiteSpace=wrap;html=1;" vertex="1" parent="1">
          <mxGeometry x="125.25" y="1179.59" width="155" height="109.88" as="geometry" />
        </mxCell>
        <mxCell id="-k7Hei3Dbmx0On5LG8Cz-486" value="" style="rounded=0;whiteSpace=wrap;html=1;" vertex="1" parent="1">
          <mxGeometry x="285.25" y="304" width="210" height="140" as="geometry" />
        </mxCell>
        <mxCell id="-k7Hei3Dbmx0On5LG8Cz-479" value="" style="rounded=0;whiteSpace=wrap;html=1;" vertex="1" parent="1">
          <mxGeometry x="285.25" y="29" width="220" height="140" as="geometry" />
        </mxCell>
        <mxCell id="-k7Hei3Dbmx0On5LG8Cz-468" value="Security group" style="fillColor=none;strokeColor=#DD3522;verticalAlign=top;fontStyle=0;fontColor=#DD3522;whiteSpace=wrap;html=1;" vertex="1" parent="1">
          <mxGeometry x="-725" y="644.45" width="200" height="160" as="geometry" />
        </mxCell>
        <mxCell id="-k7Hei3Dbmx0On5LG8Cz-423" value="" style="rounded=1;whiteSpace=wrap;html=1;" vertex="1" parent="1">
          <mxGeometry x="-354.75" y="509" width="930" height="389" as="geometry" />
        </mxCell>
        <mxCell id="-k7Hei3Dbmx0On5LG8Cz-465" style="edgeStyle=orthogonalEdgeStyle;rounded=0;orthogonalLoop=1;jettySize=auto;html=1;" edge="1" parent="1" source="-k7Hei3Dbmx0On5LG8Cz-461" target="-k7Hei3Dbmx0On5LG8Cz-425">
          <mxGeometry relative="1" as="geometry" />
        </mxCell>
        <mxCell id="-k7Hei3Dbmx0On5LG8Cz-461" value="" style="rounded=0;whiteSpace=wrap;html=1;" vertex="1" parent="1">
          <mxGeometry x="-334.75" y="943.75" width="200" height="150" as="geometry" />
        </mxCell>
        <mxCell id="-k7Hei3Dbmx0On5LG8Cz-451" style="edgeStyle=orthogonalEdgeStyle;rounded=0;orthogonalLoop=1;jettySize=auto;html=1;" edge="1" parent="1" source="-k7Hei3Dbmx0On5LG8Cz-450" target="-k7Hei3Dbmx0On5LG8Cz-424">
          <mxGeometry relative="1" as="geometry">
            <Array as="points">
              <mxPoint x="-404.75" y="534" />
              <mxPoint x="-404.75" y="647" />
            </Array>
          </mxGeometry>
        </mxCell>
        <mxCell id="-k7Hei3Dbmx0On5LG8Cz-473" style="edgeStyle=orthogonalEdgeStyle;rounded=0;orthogonalLoop=1;jettySize=auto;html=1;" edge="1" parent="1" source="-k7Hei3Dbmx0On5LG8Cz-450" target="-k7Hei3Dbmx0On5LG8Cz-425">
          <mxGeometry relative="1" as="geometry">
            <Array as="points">
              <mxPoint x="-404.75" y="569" />
              <mxPoint x="-404.75" y="534" />
              <mxPoint x="-4.75" y="534" />
              <mxPoint x="-4.75" y="559" />
              <mxPoint x="100.25" y="559" />
            </Array>
          </mxGeometry>
        </mxCell>
        <mxCell id="-k7Hei3Dbmx0On5LG8Cz-476" style="edgeStyle=orthogonalEdgeStyle;rounded=0;orthogonalLoop=1;jettySize=auto;html=1;" edge="1" parent="1" source="-k7Hei3Dbmx0On5LG8Cz-450" target="-k7Hei3Dbmx0On5LG8Cz-444">
          <mxGeometry relative="1" as="geometry">
            <Array as="points">
              <mxPoint x="-404.75" y="499" />
              <mxPoint x="-404.75" y="534" />
              <mxPoint x="-4.75" y="534" />
              <mxPoint x="-4.75" y="559" />
              <mxPoint x="445.25" y="559" />
            </Array>
          </mxGeometry>
        </mxCell>
        <mxCell id="-k7Hei3Dbmx0On5LG8Cz-450" value="" style="rounded=0;whiteSpace=wrap;html=1;" vertex="1" parent="1">
          <mxGeometry x="-730" y="467.75" width="210" height="132.5" as="geometry" />
        </mxCell>
        <mxCell id="-k7Hei3Dbmx0On5LG8Cz-483" style="edgeStyle=orthogonalEdgeStyle;rounded=0;orthogonalLoop=1;jettySize=auto;html=1;entryX=0;entryY=0.5;entryDx=0;entryDy=0;" edge="1" parent="1" source="-k7Hei3Dbmx0On5LG8Cz-438" target="-k7Hei3Dbmx0On5LG8Cz-479">
          <mxGeometry relative="1" as="geometry">
            <Array as="points">
              <mxPoint x="25.25" y="99" />
            </Array>
          </mxGeometry>
        </mxCell>
        <mxCell id="-k7Hei3Dbmx0On5LG8Cz-489" style="edgeStyle=orthogonalEdgeStyle;rounded=0;orthogonalLoop=1;jettySize=auto;html=1;" edge="1" parent="1" source="-k7Hei3Dbmx0On5LG8Cz-438" target="-k7Hei3Dbmx0On5LG8Cz-486">
          <mxGeometry relative="1" as="geometry">
            <Array as="points">
              <mxPoint x="245.25" y="379" />
              <mxPoint x="245.25" y="379" />
            </Array>
          </mxGeometry>
        </mxCell>
        <mxCell id="-k7Hei3Dbmx0On5LG8Cz-438" value="" style="rounded=1;whiteSpace=wrap;html=1;" vertex="1" parent="1">
          <mxGeometry x="-93.25" y="304" width="230" height="150" as="geometry" />
        </mxCell>
        <mxCell id="-k7Hei3Dbmx0On5LG8Cz-442" style="edgeStyle=orthogonalEdgeStyle;rounded=0;orthogonalLoop=1;jettySize=auto;html=1;entryX=0.5;entryY=1;entryDx=0;entryDy=0;" edge="1" parent="1" source="-k7Hei3Dbmx0On5LG8Cz-424" target="-k7Hei3Dbmx0On5LG8Cz-438">
          <mxGeometry relative="1" as="geometry" />
        </mxCell>
        <mxCell id="-k7Hei3Dbmx0On5LG8Cz-424" value="Subnet" style="sketch=0;outlineConnect=0;gradientColor=none;html=1;whiteSpace=wrap;fontSize=12;fontStyle=0;shape=mxgraph.aws4.group;grIcon=mxgraph.aws4.group_subnet;strokeColor=#879196;fillColor=none;verticalAlign=top;align=left;spacingLeft=30;fontColor=#879196;dashed=0;" vertex="1" parent="1">
          <mxGeometry x="-284.75" y="574" width="180" height="145" as="geometry" />
        </mxCell>
        <mxCell id="-k7Hei3Dbmx0On5LG8Cz-425" value="Subnet" style="sketch=0;outlineConnect=0;gradientColor=none;html=1;whiteSpace=wrap;fontSize=12;fontStyle=0;shape=mxgraph.aws4.group;grIcon=mxgraph.aws4.group_subnet;strokeColor=#879196;fillColor=none;verticalAlign=top;align=left;spacingLeft=30;fontColor=#879196;dashed=0;" vertex="1" parent="1">
          <mxGeometry x="-4.75" y="719" width="210" height="150" as="geometry" />
        </mxCell>
        <mxCell id="-k7Hei3Dbmx0On5LG8Cz-426" value="" style="verticalLabelPosition=bottom;aspect=fixed;html=1;shape=mxgraph.salesforce.web;" vertex="1" parent="1">
          <mxGeometry x="59.25" y="757.4" width="82.66" height="65.3" as="geometry" />
        </mxCell>
        <mxCell id="-k7Hei3Dbmx0On5LG8Cz-427" value="" style="html=1;verticalLabelPosition=bottom;align=center;labelBackgroundColor=#ffffff;verticalAlign=top;strokeWidth=2;strokeColor=#0080F0;shadow=0;dashed=0;shape=mxgraph.ios7.icons.data;" vertex="1" parent="1">
          <mxGeometry x="418.25" y="644.45" width="54" height="69.1" as="geometry" />
        </mxCell>
        <mxCell id="-k7Hei3Dbmx0On5LG8Cz-429" value="&lt;font style=&quot;font-size: 18px;&quot;&gt;10.0.1.0/24&lt;/font&gt;" style="text;html=1;align=center;verticalAlign=middle;whiteSpace=wrap;rounded=0;" vertex="1" parent="1">
          <mxGeometry x="70.25" y="829" width="60" height="30" as="geometry" />
        </mxCell>
        <mxCell id="-k7Hei3Dbmx0On5LG8Cz-433" value="" style="outlineConnect=0;dashed=0;verticalLabelPosition=bottom;verticalAlign=top;align=center;html=1;shape=mxgraph.aws3.workspaces;fillColor=#D16A28;gradientColor=#F58435;gradientDirection=north;" vertex="1" parent="1">
          <mxGeometry x="-225.37" y="609" width="61.25" height="74.75" as="geometry" />
        </mxCell>
        <mxCell id="-k7Hei3Dbmx0On5LG8Cz-434" value="&lt;font style=&quot;font-size: 18px;&quot;&gt;10.0.2.0/24&lt;/font&gt;" style="text;html=1;align=center;verticalAlign=middle;whiteSpace=wrap;rounded=0;" vertex="1" parent="1">
          <mxGeometry x="-224.12" y="683.55" width="60" height="30" as="geometry" />
        </mxCell>
        <mxCell id="-k7Hei3Dbmx0On5LG8Cz-452" style="edgeStyle=orthogonalEdgeStyle;rounded=0;orthogonalLoop=1;jettySize=auto;html=1;" edge="1" parent="1" target="-k7Hei3Dbmx0On5LG8Cz-424">
          <mxGeometry relative="1" as="geometry">
            <mxPoint x="-525.2500000000005" y="699" as="sourcePoint" />
            <Array as="points">
              <mxPoint x="-404.75" y="699" />
              <mxPoint x="-404.75" y="647" />
            </Array>
          </mxGeometry>
        </mxCell>
        <mxCell id="-k7Hei3Dbmx0On5LG8Cz-453" style="edgeStyle=orthogonalEdgeStyle;rounded=0;orthogonalLoop=1;jettySize=auto;html=1;" edge="1" parent="1" target="-k7Hei3Dbmx0On5LG8Cz-444">
          <mxGeometry relative="1" as="geometry">
            <mxPoint x="-525.2500000000005" y="729" as="sourcePoint" />
            <Array as="points">
              <mxPoint x="-64.75" y="729" />
              <mxPoint x="-64.75" y="679" />
            </Array>
          </mxGeometry>
        </mxCell>
        <mxCell id="-k7Hei3Dbmx0On5LG8Cz-466" style="edgeStyle=orthogonalEdgeStyle;rounded=0;orthogonalLoop=1;jettySize=auto;html=1;" edge="1" parent="1" target="-k7Hei3Dbmx0On5LG8Cz-425">
          <mxGeometry relative="1" as="geometry">
            <mxPoint x="-525.2500000000005" y="759" as="sourcePoint" />
            <Array as="points">
              <mxPoint x="-314.75" y="759" />
              <mxPoint x="-314.75" y="794" />
            </Array>
          </mxGeometry>
        </mxCell>
        <mxCell id="-k7Hei3Dbmx0On5LG8Cz-436" value="Networkd Security Group" style="text;html=1;align=center;verticalAlign=middle;whiteSpace=wrap;rounded=0;" vertex="1" parent="1">
          <mxGeometry x="-715" y="663.9499999999999" width="180" height="30" as="geometry" />
        </mxCell>
        <mxCell id="-k7Hei3Dbmx0On5LG8Cz-437" value="" style="image;aspect=fixed;html=1;points=[];align=center;fontSize=12;image=img/lib/azure2/databases/Azure_Database_MySQL_Server.svg;" vertex="1" parent="1">
          <mxGeometry x="-5.25" y="343" width="54" height="72" as="geometry" />
        </mxCell>
        <mxCell id="-k7Hei3Dbmx0On5LG8Cz-439" value="SQL SERVER" style="text;html=1;align=center;verticalAlign=middle;whiteSpace=wrap;rounded=0;" vertex="1" parent="1">
          <mxGeometry x="-48.25" y="304" width="140" height="30" as="geometry" />
        </mxCell>
        <mxCell id="-k7Hei3Dbmx0On5LG8Cz-441" value="&lt;font style=&quot;font-size: 18px;&quot;&gt;sql-contable-dev&lt;/font&gt;" style="text;html=1;align=center;verticalAlign=middle;whiteSpace=wrap;rounded=0;" vertex="1" parent="1">
          <mxGeometry x="-48.25" y="416" width="140" height="30" as="geometry" />
        </mxCell>
        <mxCell id="-k7Hei3Dbmx0On5LG8Cz-444" value="Subnet" style="sketch=0;outlineConnect=0;gradientColor=none;html=1;whiteSpace=wrap;fontSize=12;fontStyle=0;shape=mxgraph.aws4.group;grIcon=mxgraph.aws4.group_subnet;strokeColor=#879196;fillColor=none;verticalAlign=top;align=left;spacingLeft=30;fontColor=#879196;dashed=0;" vertex="1" parent="1">
          <mxGeometry x="355.25" y="606.5" width="180" height="145" as="geometry" />
        </mxCell>
        <mxCell id="-k7Hei3Dbmx0On5LG8Cz-445" value="&lt;font style=&quot;font-size: 18px;&quot;&gt;10.0.3.0/24&lt;/font&gt;" style="text;html=1;align=center;verticalAlign=middle;whiteSpace=wrap;rounded=0;" vertex="1" parent="1">
          <mxGeometry x="415.25" y="719" width="60" height="30" as="geometry" />
        </mxCell>
        <mxCell id="-k7Hei3Dbmx0On5LG8Cz-446" value="" style="image;aspect=fixed;html=1;points=[];align=center;fontSize=12;image=img/lib/azure2/networking/Private_Endpoint.svg;" vertex="1" parent="1">
          <mxGeometry x="358.34000000000003" y="61" width="81.82" height="75" as="geometry" />
        </mxCell>
        <mxCell id="-k7Hei3Dbmx0On5LG8Cz-448" value="" style="image;html=1;image=img/lib/clip_art/computers/Virtual_Application_128x128.png" vertex="1" parent="1">
          <mxGeometry x="-664.75" y="489" width="80" height="80" as="geometry" />
        </mxCell>
        <mxCell id="-k7Hei3Dbmx0On5LG8Cz-464" style="edgeStyle=orthogonalEdgeStyle;rounded=0;orthogonalLoop=1;jettySize=auto;html=1;entryX=0;entryY=0.5;entryDx=0;entryDy=0;" edge="1" parent="1" source="-k7Hei3Dbmx0On5LG8Cz-449" target="-k7Hei3Dbmx0On5LG8Cz-461">
          <mxGeometry relative="1" as="geometry" />
        </mxCell>
        <mxCell id="-k7Hei3Dbmx0On5LG8Cz-449" value="" style="rounded=0;whiteSpace=wrap;html=1;" vertex="1" parent="1">
          <mxGeometry x="-724.75" y="869" width="200" height="140" as="geometry" />
        </mxCell>
        <mxCell id="-k7Hei3Dbmx0On5LG8Cz-455" value="" style="image;aspect=fixed;html=1;points=[];align=center;fontSize=12;image=img/lib/azure2/app_services/App_Service_Plans.svg;" vertex="1" parent="1">
          <mxGeometry x="-655.25" y="899" width="61" height="61" as="geometry" />
        </mxCell>
        <mxCell id="-k7Hei3Dbmx0On5LG8Cz-456" value="App Service Plan" style="text;html=1;align=center;verticalAlign=middle;whiteSpace=wrap;rounded=0;" vertex="1" parent="1">
          <mxGeometry x="-690" y="869" width="130" height="30" as="geometry" />
        </mxCell>
        <mxCell id="-k7Hei3Dbmx0On5LG8Cz-457" value="asp-contable-dev&lt;div&gt;(Linux, S1)&lt;/div&gt;" style="text;html=1;align=center;verticalAlign=middle;whiteSpace=wrap;rounded=0;" vertex="1" parent="1">
          <mxGeometry x="-690" y="969" width="130" height="30" as="geometry" />
        </mxCell>
        <mxCell id="-k7Hei3Dbmx0On5LG8Cz-458" value="" style="shape=image;html=1;verticalAlign=top;verticalLabelPosition=bottom;labelBackgroundColor=#ffffff;imageAspect=0;aspect=fixed;image=https://cdn1.iconfinder.com/data/icons/hawcons/32/700045-icon-86-document-file-php-128.png" vertex="1" parent="1">
          <mxGeometry x="-277.25" y="969" width="85" height="85" as="geometry" />
        </mxCell>
        <mxCell id="-k7Hei3Dbmx0On5LG8Cz-459" value="&lt;font style=&quot;font-size: 24px;&quot;&gt;Subnets&lt;/font&gt;" style="text;html=1;align=center;verticalAlign=middle;whiteSpace=wrap;rounded=0;" vertex="1" parent="1">
          <mxGeometry x="70.25" y="519" width="60" height="30" as="geometry" />
        </mxCell>
        <mxCell id="-k7Hei3Dbmx0On5LG8Cz-462" value="Web App" style="text;html=1;align=center;verticalAlign=middle;whiteSpace=wrap;rounded=0;" vertex="1" parent="1">
          <mxGeometry x="-264.75" y="949" width="60" height="30" as="geometry" />
        </mxCell>
        <mxCell id="-k7Hei3Dbmx0On5LG8Cz-463" value="app-contable-dev&lt;div&gt;(PHP 8.0)&lt;/div&gt;" style="text;html=1;align=center;verticalAlign=middle;whiteSpace=wrap;rounded=0;" vertex="1" parent="1">
          <mxGeometry x="-289.5" y="1054" width="109.5" height="30" as="geometry" />
        </mxCell>
        <mxCell id="-k7Hei3Dbmx0On5LG8Cz-467" value="" style="image;aspect=fixed;perimeter=ellipsePerimeter;html=1;align=center;shadow=0;dashed=0;spacingTop=3;image=img/lib/active_directory/security.svg;" vertex="1" parent="1">
          <mxGeometry x="-655.25" y="693.9499999999999" width="44.1" height="70" as="geometry" />
        </mxCell>
        <mxCell id="-k7Hei3Dbmx0On5LG8Cz-469" value="&lt;font style=&quot;font-size: 14px;&quot;&gt;nsg-contable-dev&lt;/font&gt;&lt;div&gt;&lt;br&gt;&lt;/div&gt;" style="text;html=1;align=center;verticalAlign=middle;whiteSpace=wrap;rounded=0;" vertex="1" parent="1">
          <mxGeometry x="-707.2" y="775.45" width="160" height="30" as="geometry" />
        </mxCell>
        <mxCell id="-k7Hei3Dbmx0On5LG8Cz-470" value="WEB" style="text;html=1;align=center;verticalAlign=middle;whiteSpace=wrap;rounded=0;" vertex="1" parent="1">
          <mxGeometry x="65.25" y="721.5" width="60" height="30" as="geometry" />
        </mxCell>
        <mxCell id="-k7Hei3Dbmx0On5LG8Cz-471" value="APP" style="text;html=1;align=center;verticalAlign=middle;whiteSpace=wrap;rounded=0;" vertex="1" parent="1">
          <mxGeometry x="-225.37" y="576.5" width="60" height="30" as="geometry" />
        </mxCell>
        <mxCell id="-k7Hei3Dbmx0On5LG8Cz-472" value="DATA" style="text;html=1;align=center;verticalAlign=middle;whiteSpace=wrap;rounded=0;" vertex="1" parent="1">
          <mxGeometry x="415.25" y="614.45" width="60" height="30" as="geometry" />
        </mxCell>
        <mxCell id="-k7Hei3Dbmx0On5LG8Cz-477" value="Virtual Network" style="text;html=1;align=center;verticalAlign=middle;whiteSpace=wrap;rounded=0;" vertex="1" parent="1">
          <mxGeometry x="-670.12" y="467.75" width="90.25" height="30" as="geometry" />
        </mxCell>
        <mxCell id="-k7Hei3Dbmx0On5LG8Cz-478" value="vnet-contabe-dev&lt;div&gt;10.0.0.0/16&lt;/div&gt;&lt;div&gt;&lt;br&gt;&lt;/div&gt;" style="text;html=1;align=center;verticalAlign=middle;whiteSpace=wrap;rounded=0;" vertex="1" parent="1">
          <mxGeometry x="-694.75" y="574" width="140" height="30" as="geometry" />
        </mxCell>
        <mxCell id="-k7Hei3Dbmx0On5LG8Cz-480" value="Private-Endpoint" style="text;html=1;align=center;verticalAlign=middle;whiteSpace=wrap;rounded=0;" vertex="1" parent="1">
          <mxGeometry x="339.25" y="31" width="120" height="30" as="geometry" />
        </mxCell>
        <mxCell id="-k7Hei3Dbmx0On5LG8Cz-481" value="pe-sql-contable-dev" style="text;html=1;align=center;verticalAlign=middle;whiteSpace=wrap;rounded=0;" vertex="1" parent="1">
          <mxGeometry x="334.25" y="136" width="130" height="30" as="geometry" />
        </mxCell>
        <mxCell id="-k7Hei3Dbmx0On5LG8Cz-484" style="edgeStyle=orthogonalEdgeStyle;rounded=0;orthogonalLoop=1;jettySize=auto;html=1;exitX=1;exitY=0.5;exitDx=0;exitDy=0;" edge="1" parent="1" source="-k7Hei3Dbmx0On5LG8Cz-479" target="-k7Hei3Dbmx0On5LG8Cz-444">
          <mxGeometry relative="1" as="geometry">
            <mxPoint x="675.25" y="79" as="sourcePoint" />
            <Array as="points">
              <mxPoint x="745.25" y="99" />
              <mxPoint x="745.25" y="679" />
            </Array>
          </mxGeometry>
        </mxCell>
        <mxCell id="-k7Hei3Dbmx0On5LG8Cz-485" value="" style="image;sketch=0;aspect=fixed;html=1;points=[];align=center;fontSize=12;image=img/lib/mscae/SQL_Database_generic.svg;" vertex="1" parent="1">
          <mxGeometry x="369.71" y="340.39" width="51.09" height="67.22" as="geometry" />
        </mxCell>
        <mxCell id="-k7Hei3Dbmx0On5LG8Cz-487" value="SQL-Database" style="text;html=1;align=center;verticalAlign=middle;whiteSpace=wrap;rounded=0;" vertex="1" parent="1">
          <mxGeometry x="345.25" y="310.39" width="100.01" height="30" as="geometry" />
        </mxCell>
        <mxCell id="-k7Hei3Dbmx0On5LG8Cz-488" value="sqldb-contable-dev" style="text;html=1;align=center;verticalAlign=middle;whiteSpace=wrap;rounded=0;" vertex="1" parent="1">
          <mxGeometry x="330.26" y="407.61" width="130" height="30" as="geometry" />
        </mxCell>
        <mxCell id="-k7Hei3Dbmx0On5LG8Cz-506" style="edgeStyle=orthogonalEdgeStyle;rounded=0;orthogonalLoop=1;jettySize=auto;html=1;" edge="1" parent="1" source="-k7Hei3Dbmx0On5LG8Cz-491" target="-k7Hei3Dbmx0On5LG8Cz-444">
          <mxGeometry relative="1" as="geometry" />
        </mxCell>
        <mxCell id="-k7Hei3Dbmx0On5LG8Cz-491" value="" style="rounded=0;whiteSpace=wrap;html=1;" vertex="1" parent="1">
          <mxGeometry x="275.25" y="949" width="220" height="140" as="geometry" />
        </mxCell>
        <mxCell id="-k7Hei3Dbmx0On5LG8Cz-492" value="" style="image;aspect=fixed;html=1;points=[];align=center;fontSize=12;image=img/lib/azure2/networking/Private_Endpoint.svg;" vertex="1" parent="1">
          <mxGeometry x="348.34000000000003" y="981" width="81.82" height="75" as="geometry" />
        </mxCell>
        <mxCell id="-k7Hei3Dbmx0On5LG8Cz-493" value="Private-Endpoint" style="text;html=1;align=center;verticalAlign=middle;whiteSpace=wrap;rounded=0;" vertex="1" parent="1">
          <mxGeometry x="329.25" y="951" width="120" height="30" as="geometry" />
        </mxCell>
        <mxCell id="-k7Hei3Dbmx0On5LG8Cz-494" value="pe-storage-contable-dev" style="text;html=1;align=center;verticalAlign=middle;whiteSpace=wrap;rounded=0;" vertex="1" parent="1">
          <mxGeometry x="327.25" y="1054" width="134" height="30" as="geometry" />
        </mxCell>
        <mxCell id="-k7Hei3Dbmx0On5LG8Cz-496" value="" style="image;aspect=fixed;html=1;points=[];align=center;fontSize=12;image=img/lib/azure2/storage/Storage_Accounts.svg;" vertex="1" parent="1">
          <mxGeometry x="170.25" y="1208.53" width="65" height="52" as="geometry" />
        </mxCell>
        <mxCell id="-k7Hei3Dbmx0On5LG8Cz-498" value="Storage Account" style="text;html=1;align=center;verticalAlign=middle;whiteSpace=wrap;rounded=0;" vertex="1" parent="1">
          <mxGeometry x="150.25" y="1178.53" width="110" height="30" as="geometry" />
        </mxCell>
        <mxCell id="-k7Hei3Dbmx0On5LG8Cz-499" value="stcontabledev" style="text;html=1;align=center;verticalAlign=middle;whiteSpace=wrap;rounded=0;" vertex="1" parent="1">
          <mxGeometry x="145.26" y="1259.47" width="110" height="30" as="geometry" />
        </mxCell>
        <mxCell id="-k7Hei3Dbmx0On5LG8Cz-500" value="" style="sketch=0;pointerEvents=1;shadow=0;dashed=0;html=1;strokeColor=none;fillColor=#DF8C42;labelPosition=center;verticalLabelPosition=bottom;verticalAlign=top;align=center;outlineConnect=0;shape=mxgraph.veeam2.azure_blob;" vertex="1" parent="1">
          <mxGeometry x="479.25" y="1199" width="70" height="70" as="geometry" />
        </mxCell>
        <mxCell id="-k7Hei3Dbmx0On5LG8Cz-502" value="Blob Container" style="text;html=1;align=center;verticalAlign=middle;whiteSpace=wrap;rounded=0;" vertex="1" parent="1">
          <mxGeometry x="465.71000000000004" y="1175" width="100" height="30" as="geometry" />
        </mxCell>
        <mxCell id="-k7Hei3Dbmx0On5LG8Cz-503" value="documents" style="text;html=1;align=center;verticalAlign=middle;whiteSpace=wrap;rounded=0;" vertex="1" parent="1">
          <mxGeometry x="462.94000000000005" y="1262" width="100" height="30" as="geometry" />
        </mxCell>
      </root>
    </mxGraphModel>
  </diagram>
</mxfile>
